<svg width="24" height="29" viewBox="0 0 24 29" fill="none" xmlns="http://www.w3.org/2000/svg">
<path d="M24 11.561V28.1126H19.2995V24.4583C17.697 26.9303 14.5989 28.3275 10.3257 28.3275C4.12958 28.3275 0.283691 24.9957 0.283691 20.2667C0.283691 15.8601 3.06127 12.3133 11.1804 12.3133H18.979V11.346C18.979 7.1544 16.5219 4.78989 11.7145 4.78989C8.50961 4.78989 5.19788 5.97215 3.06127 7.69179L1.0315 3.93007C3.80908 1.67304 7.86863 0.383301 12.2487 0.383301C19.8336 0.490779 24 4.14503 24 11.561ZM19.0858 19.7293V15.8601H11.5009C6.58667 15.8601 5.19788 17.7947 5.19788 20.0517C5.19788 22.7387 7.44131 24.4583 11.1804 24.4583C14.9194 24.5658 17.9107 22.9536 19.0858 19.7293Z" fill="white"/>
</svg>
