<svg width="24" height="29" viewBox="0 0 24 29" fill="none" xmlns="http://www.w3.org/2000/svg">
<path d="M0.905396 25.2106L2.93517 21.3414C5.28543 22.9536 8.91766 24.1358 12.4431 24.1358C17.0367 24.1358 18.8529 22.7386 18.8529 20.3741C18.8529 14.2479 1.6532 19.5143 1.6532 8.65904C1.6532 3.71506 6.03325 0.490723 12.9772 0.490723C16.5026 0.490723 20.5621 1.45802 22.9124 2.96271L20.7758 6.83191C18.3187 5.21975 15.648 4.68236 12.9772 4.68236C8.704 4.68236 6.5674 6.29453 6.5674 8.44408C6.5674 14.8928 23.767 9.62634 23.767 20.2666C23.767 25.2106 19.2802 28.3275 12.0157 28.3275C7.6357 28.435 3.14883 27.0377 0.905396 25.2106Z" fill="white"/>
</svg>
